<svg width="22" height="28" viewBox="0 0 22 28" fill="none" xmlns="http://www.w3.org/2000/svg">
<path d="M11.0215 2.93302C14.1472 6.9011 15.8158 11.7944 15.7553 16.8155V18.0141L16.7865 18.6416C18.119 19.4482 19.1127 20.6993 19.5866 22.1669C19.1705 21.8605 18.7352 21.5803 18.2833 21.3278L15.5333 19.7838L15.0391 22.9001C14.9963 23.1755 14.9389 23.4485 14.8672 23.718H7.16151C7.04692 23.3655 6.95382 23.0129 6.86789 22.6463L6.24484 19.8261L3.70968 21.2362C3.28615 21.473 2.87723 21.7344 2.48507 22.0188C2.96824 20.5682 3.94123 19.3242 5.24224 18.4935L6.22336 17.866V16.7521C6.24106 11.7513 7.92967 6.89523 11.0287 2.93302H11.0215ZM11.0287 0C10.868 0.000390307 10.7128 0.0579856 10.5918 0.162162L10.5274 0.218566C6.39778 4.76564 4.10466 10.6454 4.08208 16.745C2.32967 17.8643 1.03251 19.5543 0.417263 21.5197C-0.197979 23.485 -0.0921719 25.6007 0.716194 27.4971C1.56776 25.6455 2.99131 24.1058 4.7839 23.0975C4.96368 23.8642 5.2031 24.6161 5.50005 25.3467C5.53771 25.4871 5.62118 25.6114 5.73763 25.7006C5.85408 25.7898 5.99706 25.8388 6.14458 25.8402H16.0847C16.2852 25.8402 16.4857 25.6498 16.586 25.3537C16.8758 24.6592 17.0778 23.9322 17.1875 23.1892C18.9836 24.1932 20.4083 25.7342 21.2553 27.5887C22.1124 25.7017 22.2451 23.5727 21.6287 21.5967C21.0124 19.6206 19.6888 17.9319 17.9037 16.8437C17.9745 10.7082 15.6935 4.77179 11.5157 0.218566C11.4535 0.150085 11.3773 0.0952397 11.2922 0.0575871C11.2071 0.0199344 11.1149 0.000314749 11.0215 0L11.0287 0Z" fill="#4EA8DE"/>
</svg>
